<?xml version="1.0" encoding="utf-8"?>
<!-- Generator: Adobe Adobe Illustrator 29.2.0, SVG Export Plug-In . SVG Version: 6.00 Build 0)  -->
<svg version="1.1" id="PATTERN" xmlns="http://www.w3.org/2000/svg" xmlns:xlink="http://www.w3.org/1999/xlink" x="0px" y="0px"
	 width="126.5px" height="126px" viewBox="0 0 126.5 126" style="enable-background:new 0 0 126.5 126;" xml:space="preserve">
<style type="text/css">
	.st0{fill:none;}
	.st1{fill:white;}
	.st2{fill:url(#New_Pattern_5);}
</style>
<pattern  x="-571.5" y="-444.87" width="126.98" height="126.98" patternUnits="userSpaceOnUse" id="New_Pattern_5" viewBox="31.94 -158.92 126.98 126.98" style="overflow:visible;">
	<g>
		<rect x="31.94" y="-158.92" class="st0" width="126.98" height="126.98"/>
		<g>
			<path class="st1" d="M164.81-3.4v-22.65h22.65l3.4-5.89l-3.4-5.89h-22.65v-22.65l-5.89-3.4l-5.89,3.4v22.65h-22.65l-3.4,5.89
				l3.4,5.89h22.65V-3.4l5.89,3.4L164.81-3.4z M153.75-26.77H130.8l-2.98-5.17l2.98-5.17h22.95v-22.95l5.17-2.98l5.17,2.98v22.95
				h22.95l2.98,5.17l-2.98,5.17h-22.95v22.95l-5.17,2.98l-5.17-2.98V-26.77z"/>
			<path class="st1" d="M161.07-23.89l19.61,11.32l5.89-3.4v-6.8l-19.61-11.32l11.32-19.61l-3.4-5.89h-6.8l-11.32,19.61L137.15-51.3
				l-5.89,3.4v6.8l19.61,11.32l-11.32,19.61l3.4,5.89h6.8L161.07-23.89z M140.38-10.17l11.48-19.88l-19.88-11.48v-5.97l5.17-2.98
				L157.03-39l11.48-19.88h5.97l2.98,5.17l-11.47,19.88l19.88,11.48v5.97l-5.17,2.98l-19.88-11.48L149.34-5h-5.97L140.38-10.17z"/>
			<path class="st1" d="M178.29-10.17l-11.32-19.61l19.61-11.32v-6.8l-5.89-3.4l-19.61,11.32l-11.32-19.61h-6.8l-3.4,5.89
				l11.32,19.61l-19.61,11.32v6.8l5.89,3.4l19.61-11.32l11.32,19.61h6.8L178.29-10.17z M157.03-24.88L137.15-13.4l-5.17-2.98v-5.97
				l19.88-11.48L140.38-53.7l2.98-5.17h5.97L160.81-39l19.88-11.47l5.17,2.98v5.97l-19.88,11.48l11.47,19.88L174.47-5h-5.97
				L157.03-24.88z"/>
		</g>
		<g>
			<path class="st1" d="M37.83-3.4v-22.65h22.65l3.4-5.89l-3.4-5.89H37.83v-22.65l-5.89-3.4l-5.89,3.4v22.65H3.4L0-31.94l3.4,5.89
				h22.65V-3.4L31.94,0L37.83-3.4z M26.77-26.77H3.82l-2.98-5.17l2.98-5.17h22.95v-22.95l5.17-2.98l5.17,2.98v22.95h22.95l2.98,5.17
				l-2.98,5.17H37.1v22.95l-5.17,2.98l-5.17-2.98V-26.77z"/>
			<path class="st1" d="M34.09-23.89L53.7-12.57l5.89-3.4v-6.8L39.98-34.09L51.3-53.7l-3.4-5.89h-6.8L29.78-39.98L10.17-51.3
				l-5.89,3.4v6.8l19.61,11.32L12.57-10.17l3.4,5.89h6.8L34.09-23.89z M13.4-10.17l11.47-19.88L5-41.52v-5.97l5.17-2.98L30.04-39
				l11.48-19.88h5.97l2.98,5.17L39-33.83l19.88,11.48v5.97L53.7-13.4L33.83-24.88L22.35-5h-5.97L13.4-10.17z"/>
			<path class="st1" d="M51.3-10.17L39.98-29.78L59.59-41.1v-6.8l-5.89-3.4L34.09-39.98L22.77-59.59h-6.8l-3.4,5.89l11.32,19.61
				L4.28-22.77v6.8l5.89,3.4l19.61-11.32L41.1-4.28h6.8L51.3-10.17z M30.04-24.88L10.17-13.4L5-16.38v-5.97l19.88-11.48L13.4-53.7
				l2.98-5.17h5.97L33.83-39L53.7-50.47l5.17,2.98v5.97L39-30.04l11.47,19.88L47.49-5h-5.97L30.04-24.88z"/>
		</g>
		<g>
			<path class="st1" d="M107.14-38.7v-45.02h45.02l6.76-11.71l-6.76-11.71h-45.02v-45.02l-11.71-6.76l-11.71,6.76v45.02H38.7
				l-6.76,11.71l6.76,11.71h45.02v45.02l11.71,6.76L107.14-38.7z M85.15-85.15H39.52l-5.93-10.28l5.93-10.28h45.63v-45.63
				l10.28-5.93l10.28,5.93v45.63h45.63l5.93,10.28l-5.93,10.28H105.7v45.63l-10.28,5.93l-10.28-5.93V-85.15z"/>
			<path class="st1" d="M99.71-79.43l38.99,22.51l11.71-6.76V-77.2l-38.99-22.51l22.51-38.99l-6.76-11.71h-13.52l-22.51,38.99
				l-38.99-22.51l-11.71,6.76v13.52l38.99,22.51L56.92-52.15l6.76,11.71H77.2L99.71-79.43z M58.58-52.15l22.81-39.51l-39.51-22.81
				v-11.87l10.28-5.93l39.51,22.81l22.81-39.51h11.87l5.93,10.28l-22.81,39.51l39.51,22.81v11.87l-10.28,5.93L99.19-81.39
				L76.38-41.88H64.51L58.58-52.15z"/>
			<path class="st1" d="M133.93-52.15l-22.51-38.99l38.99-22.51v-13.52l-11.71-6.76l-38.99,22.51L77.2-150.41H63.68l-6.76,11.71
				l22.51,38.99L40.44-77.2v13.52l11.71,6.76l38.99-22.51l22.51,38.99h13.52L133.93-52.15z M91.67-81.39L52.15-58.58l-10.28-5.93
				v-11.87l39.51-22.81L58.58-138.7l5.93-10.28h11.87l22.81,39.51l39.51-22.81l10.28,5.93v11.87l-39.51,22.81l22.81,39.51
				l-5.93,10.28h-11.87L91.67-81.39z"/>
			<path class="st1" d="M164.81-130.38v-22.65h22.65l3.4-5.89l-3.4-5.89h-22.65v-22.65l-5.89-3.4l-5.89,3.4v22.65h-22.65l-3.4,5.89
				l3.4,5.89h22.65v22.65l5.89,3.4L164.81-130.38z M153.75-153.75H130.8l-2.98-5.17l2.98-5.17h22.95v-22.95l5.17-2.98l5.17,2.98
				v22.95h22.95l2.98,5.17l-2.98,5.17h-22.95v22.95l-5.17,2.98l-5.17-2.98V-153.75z"/>
			<path class="st1" d="M161.07-150.87l19.61,11.32l5.89-3.4v-6.8l-19.61-11.32l11.32-19.61l-3.4-5.89h-6.8l-11.32,19.61
				l-19.61-11.32l-5.89,3.4v6.8l19.61,11.32l-11.32,19.61l3.4,5.89h6.8L161.07-150.87z M140.38-137.15l11.48-19.88l-19.88-11.48
				v-5.97l5.17-2.98l19.88,11.47l11.48-19.88h5.97l2.98,5.17l-11.47,19.88l19.88,11.48v5.97l-5.17,2.98l-19.88-11.47l-11.47,19.88
				h-5.97L140.38-137.15z"/>
			<path class="st1" d="M178.29-137.15l-11.32-19.61l19.61-11.32v-6.8l-5.89-3.4l-19.61,11.32l-11.32-19.61h-6.8l-3.4,5.89
				l11.32,19.61l-19.61,11.32v6.8l5.89,3.4l19.61-11.32l11.32,19.61h6.8L178.29-137.15z M157.03-151.86l-19.88,11.47l-5.17-2.98
				v-5.97l19.88-11.48l-11.48-19.88l2.98-5.17h5.97l11.47,19.88l19.88-11.47l5.17,2.98v5.97l-19.88,11.48l11.47,19.88l-2.98,5.17
				h-5.97L157.03-151.86z"/>
		</g>
		<g>
			<path class="st1" d="M37.83-130.38v-22.65h22.65l3.4-5.89l-3.4-5.89H37.83v-22.65l-5.89-3.4l-5.89,3.4v22.65H3.4L0-158.92
				l3.4,5.89h22.65v22.65l5.89,3.4L37.83-130.38z M26.77-153.75H3.82l-2.98-5.17l2.98-5.17h22.95v-22.95l5.17-2.98l5.17,2.98v22.95
				h22.95l2.98,5.17l-2.98,5.17H37.1v22.95l-5.17,2.98l-5.17-2.98V-153.75z"/>
			<path class="st1" d="M34.09-150.87l19.61,11.32l5.89-3.4v-6.8l-19.61-11.32l11.32-19.61l-3.4-5.89h-6.8l-11.32,19.61
				l-19.61-11.32l-5.89,3.4v6.8l19.61,11.32l-11.32,19.61l3.4,5.89h6.8L34.09-150.87z M13.4-137.15l11.47-19.88L5-168.5v-5.97
				l5.17-2.98l19.88,11.47l11.48-19.88h5.97l2.98,5.17L39-160.81l19.88,11.48v5.97l-5.17,2.98l-19.88-11.47l-11.47,19.88h-5.97
				L13.4-137.15z"/>
			<path class="st1" d="M51.3-137.15l-11.32-19.61l19.61-11.32v-6.8l-5.89-3.4l-19.61,11.32l-11.32-19.61h-6.8l-3.4,5.89
				l11.32,19.61L4.28-149.75v6.8l5.89,3.4l19.61-11.32l11.32,19.61h6.8L51.3-137.15z M30.04-151.86l-19.88,11.47L5-143.37v-5.97
				l19.88-11.48L13.4-180.69l2.98-5.17h5.97l11.47,19.88l19.88-11.47l5.17,2.98v5.97L39-157.03l11.47,19.88l-2.98,5.17h-5.97
				L30.04-151.86z"/>
		</g>
	</g>
</pattern>
<rect class="st2" width="126.5" height="126"/>
</svg>
